<?xml version="1.0" encoding="UTF-8"?>
<!DOCTYPE svg PUBLIC "-//W3C//DTD SVG 1.1//EN" "http://www.w3.org/Graphics/SVG/1.1/DTD/svg11.dtd">
<!-- Creator: CorelDRAW 2020 (64 Bit) -->
<svg xmlns="http://www.w3.org/2000/svg" xml:space="preserve" width="45mm" height="45mm" version="1.1" style="shape-rendering:geometricPrecision; text-rendering:geometricPrecision; image-rendering:optimizeQuality; fill-rule:evenodd; clip-rule:evenodd"
viewBox="0 0 4500 4500"
 xmlns:xlink="http://www.w3.org/1999/xlink"
 xmlns:xodm="http://www.corel.com/coreldraw/odm/2003">
 <defs>
  <style type="text/css">
   <![CDATA[
    .str0 {stroke:#373435;stroke-width:20;stroke-miterlimit:22.9256}
    .fil0 {fill:none}
    .fil1 {fill:#373435;fill-rule:nonzero}
   ]]>
  </style>
 </defs>
 <g id="Camada_x0020_1">
  <metadata id="CorelCorpID_0Corel-Layer"/>
  <circle class="fil0 str0" cx="2242.87" cy="2250.53" r="2208.18"/>
  <polygon class="fil1" points="1793.3,2239.6 1793.3,1131.33 2554.85,1131.33 2554.85,1318.62 2017.74,1318.62 2017.74,1581.76 2482.1,1581.76 2482.1,1769.05 2017.74,1769.05 2017.74,2239.6 "/>
  <path class="fil1" d="M1271.43 3186.26l0 -118.72 305.14 0 0 280.29c-29.6,28.94 -72.6,54.29 -129.02,76.37 -56.25,21.91 -113.32,32.87 -171.21,32.87 -73.43,0 -137.37,-15.38 -191.98,-46.28 -54.46,-30.91 -95.5,-75.23 -122.98,-132.62 -27.47,-57.4 -41.2,-120.03 -41.2,-187.57 0,-73.26 15.37,-138.34 45.95,-195.41 30.74,-56.91 75.55,-100.73 134.58,-131.15 45.13,-23.39 101.06,-35 168.1,-35 87.16,0 155.35,18.32 204.41,54.95 48.9,36.79 80.46,87.32 94.52,152.08l-141.29 26.49c-9.81,-34.5 -28.45,-61.81 -55.76,-81.93 -27.14,-19.95 -61.16,-29.92 -102.04,-29.92 -61.81,0 -111.03,19.62 -147.5,59.03 -36.47,39.41 -54.78,97.79 -54.78,175.14 0,83.56 18.48,146.19 55.43,187.89 37.12,41.7 85.53,62.63 145.54,62.63 29.6,0 59.36,-5.89 89.12,-17.5 29.93,-11.61 55.44,-25.83 76.86,-42.51l0 -89.13 -161.89 0zm435.47 -319.85l0 -124.61 134.42 0 0 124.61 -134.42 0zm0 577.9l0 -509.22 134.42 0 0 509.22 -134.42 0zm609.14 0l0 -76.2c-18.64,27.14 -43.01,48.73 -73.26,64.92 -30.25,16.02 -62.14,24.04 -95.66,24.04 -34.34,0 -65.09,-7.53 -92.23,-22.57 -27.31,-15.05 -46.93,-36.3 -59.03,-63.45 -12.27,-27.31 -18.32,-64.92 -18.32,-113l0 -322.96 134.42 0 0 234.5c0,71.78 2.45,115.61 7.52,131.8 4.91,16.19 13.9,29.11 27.15,38.43 13.08,9.48 29.76,14.22 50.04,14.22 23.05,0 43.66,-6.37 61.97,-18.97 18.32,-12.59 30.75,-28.29 37.45,-47.09 6.71,-18.81 10.14,-64.59 10.14,-137.69l0 -215.2 134.42 0 0 509.22 -124.61 0zm262.79 0l0 -702.51 134.42 0 0 702.51 -134.42 0zm272.6 -577.9l0 -124.61 134.42 0 0 124.61 -134.42 0zm0 577.9l0 -509.22 134.42 0 0 509.22 -134.42 0zm372.68 -352.24l-121.66 -21.58c13.73,-49.71 37.45,-86.51 70.97,-110.38 33.52,-23.88 83.4,-35.81 149.46,-35.81 60.02,0 104.82,7.03 134.26,21.25 29.27,14.23 50.04,32.22 61.97,54.13 11.94,21.91 17.99,61.98 17.99,120.52l-1.96 156.99c0,44.64 2.13,77.67 6.38,98.93 4.25,21.26 12.26,43.99 24.04,68.19l-133.44 0c-3.44,-8.83 -7.85,-21.91 -12.92,-39.25 -2.13,-8.01 -3.76,-13.24 -4.74,-15.69 -22.9,22.56 -47.43,39.4 -73.59,50.69 -26.16,11.28 -53.96,17.01 -83.56,17.01 -52.17,0 -93.38,-14.23 -123.46,-42.69 -30.09,-28.29 -45.14,-64.26 -45.14,-107.76 0,-28.62 6.87,-54.29 20.61,-76.86 13.73,-22.4 32.86,-39.73 57.72,-51.67 24.69,-11.94 60.34,-22.4 106.95,-31.4 62.79,-11.77 106.45,-22.89 130.66,-33.03l0 -13.57c0,-26.17 -6.38,-44.81 -19.14,-56.09 -12.92,-11.12 -37.12,-16.68 -72.6,-16.68 -24.04,0 -42.68,4.74 -56.09,14.39 -13.58,9.48 -24.37,26.33 -32.71,50.36zm180.54 108.91c-17.18,5.73 -44.48,12.59 -81.93,20.61 -37.29,8.01 -61.81,15.86 -73.26,23.38 -17.5,12.59 -26.33,28.29 -26.33,47.42 0,18.97 7.03,35.16 21.1,48.9 14.06,13.73 31.88,20.6 53.63,20.6 24.2,0 47.43,-8.01 69.5,-23.87 16.19,-12.27 26.98,-26.98 32.05,-44.65 3.44,-11.44 5.24,-33.35 5.24,-65.57l0 -26.82z"/>
 </g>
</svg>
