<?xml version="1.0" encoding="UTF-8" standalone="no"?>
<!-- Created with Inkscape (http://www.inkscape.org/) -->

<svg
   version="1.1"
   id="svg1791"
   width="721.06665"
   height="885.33331"
   viewBox="0 0 721.06665 885.33331"
   sodipodi:docname="bor2e.svg"
   inkscape:version="1.2.2 (732a01da63, 2022-12-09, custom)"
   xmlns:inkscape="http://www.inkscape.org/namespaces/inkscape"
   xmlns:sodipodi="http://sodipodi.sourceforge.net/DTD/sodipodi-0.dtd"
   xmlns="http://www.w3.org/2000/svg"
   xmlns:svg="http://www.w3.org/2000/svg">
  <defs
     id="defs1795" />
  <sodipodi:namedview
     id="namedview1793"
     pagecolor="#ffffff"
     bordercolor="#000000"
     borderopacity="0.25"
     inkscape:showpageshadow="2"
     inkscape:pageopacity="0.0"
     inkscape:pagecheckerboard="0"
     inkscape:deskcolor="#d1d1d1"
     showgrid="false"
     inkscape:zoom="0.93524099"
     inkscape:cx="348.57326"
     inkscape:cy="442.66666"
     inkscape:window-width="1920"
     inkscape:window-height="1031"
     inkscape:window-x="0"
     inkscape:window-y="25"
     inkscape:window-maximized="1"
     inkscape:current-layer="layer1" />
  <g
     inkscape:groupmode="layer"
     id="layer1"
     inkscape:label="Layer 1">
    <path
       style="fill:#008000;stroke-width:1.06667"
       d="m 296.94737,868.72619 c 2.53039,-6.59407 9.37369,-50.86386 15.55352,-100.61677 3.42728,-27.5926 3.97621,-37.44277 2.08658,-37.44277 -1.18866,0 -5.68883,4.05869 -26.77531,24.14849 -19.92844,18.9865 -40.62187,33.06033 -63.11304,42.92385 -15.63354,6.85608 -20.36271,7.81283 -41.44524,8.3846 -31.13692,0.84447 -43.95132,-2.14545 -42.02857,-9.8063 0.48075,-1.91548 8.76051,-11.00949 23.15519,-25.43235 12.32377,-12.34789 22.87658,-23.32843 23.45071,-24.40117 0.89245,-1.66759 0.6225,-1.95046 -1.86143,-1.95046 -1.5979,0 -9.17479,1.64824 -16.83753,3.66274 -18.62085,4.89535 -24.02278,5.79661 -42.10887,7.02541 -18.15231,1.23331 -39.916091,-0.0931 -53.211487,-3.24298 -16.982267,-4.02339 -34.623405,-14.49718 -40.786668,-24.21563 -5.569827,-8.78271 -3.595385,-12.27478 7.630773,-13.49607 11.549107,-1.25643 41.464415,-13.30735 46.126452,-18.58133 1.956084,-2.21284 1.934803,-2.27178 -1.6,-4.43192 -1.970348,-1.2041 -8.165449,-3.65513 -13.76689,-5.44673 -26.631775,-8.51815 -45.558985,-24.4864 -51.562914,-43.50194 -5.042685,-15.9711 -9.628116,-53.3682 -6.884963,-56.15125 0.698658,-0.70883 4.081791,0.85953 23.298983,10.80092 23.114439,11.95752 52.346505,17.40503 85.866664,16.00158 57.7273,-2.41695 108.44278,-20.74941 140.52096,-50.79503 17.17531,-16.08705 16.66992,-16.29887 -9.02569,-3.78289 -40.78554,19.8661 -49.40491,22.23638 -80.8286,22.22733 -21.20365,-0.006 -33.09775,-1.56544 -42.00945,-5.50751 -9.31586,-4.12085 -8.19961,-6.00287 8.94278,-15.07753 11.55599,-6.1174 21.31952,-13.52716 33.6,-25.49983 8.40814,-8.19738 12.21383,-13.32905 10.87664,-14.66624 -0.99281,-0.99281 -8.83441,1.35528 -26.25829,7.86282 -16.34844,6.10587 -31.24545,10.04135 -45.80965,12.10193 -11.60118,1.64138 -37.89835,0.68052 -46.542032,-1.70058 -19.268521,-5.30796 -35.733332,-18.66119 -35.733332,-28.98032 0,-4.53402 2.80727,-6.54011 10.722451,-7.66231 11.919637,-1.68995 36.478501,-11.06267 44.629287,-17.03247 3.454824,-2.53039 3.527158,-2.71867 1.6,-4.16472 -1.110123,-0.83299 -8.314938,-4.56305 -16.010701,-8.28902 -16.260354,-7.87261 -24.485973,-14.67533 -32.439121,-26.82768 -9.76113,-14.91494 -13.822733,-30.55808 -13.83096,-53.26957 -0.0046,-12.83731 1.27201,-18.55917 4.140926,-18.55917 0.991753,0 6.584797,2.9253 12.428986,6.50069 14.812751,9.06218 22.889697,12.98765 34.625798,16.8285 21.294305,6.96892 43.227938,10.0135 71.999998,9.99422 30.62461,-0.0205 56.33441,-3.84438 80.87449,-12.02853 27.46897,-9.16094 54.14138,-26.98452 38.55445,-25.76363 -2.32592,0.18217 -8.78894,1.46304 -14.36228,2.84634 -15.40937,3.82464 -23.99891,4.82424 -41.27098,4.80287 -44.0427,-0.0545 -73.02692,-10.64515 -108.27462,-39.5629 -8.165849,-6.69939 -14.721059,-13.92857 -14.721059,-16.23462 0,-1.96504 7.427436,-3.10092 25.741139,-3.93662 10.93096,-0.49881 22.93096,-1.43164 26.66667,-2.07298 7.80364,-1.3397 15.85886,-4.06961 15.85886,-5.37456 0,-1.36376 -6.2465,-4.92551 -14.60037,-8.32514 -23.95445,-9.74833 -46.62837,-33.09017 -53.044416,-54.60697 -4.485109,-15.04122 -6.490856,-39.98542 -3.31325,-41.20478 0.866415,-0.33247 11.096113,3.98889 22.732666,9.60304 36.01733,17.37683 52.87429,21.77926 87.1762,22.76726 27.59802,0.79491 53.10843,-2.30859 72.27319,-8.79248 19.30879,-6.53264 16.44953,-10.1009 -11.06083,-13.80353 -25.55155,-3.43901 -44.00286,-9.70846 -60.7391,-20.63815 -23.28906,-15.20906 -50.72452,-40.46052 -47.47741,-43.69798 0.42295,-0.42168 11.64797,-0.77049 24.94449,-0.77512 22.84595,-0.007 24.87849,-0.17531 36.95836,-3.04283 37.23637,-8.83917 59.81558,-22.09309 88.3283,-51.848402 18.72943,-19.54568 29.22266,-34.590946 45.54505,-65.302788 4.892,-9.204674 9.94988,-18.059283 11.23973,-19.6769096 l 2.34518,-2.9411396 2.99496,4.7435752 c 1.64723,2.608968 7.50164,13.12214 13.0098,23.362606 11.55974,21.491245 16.72169,29.521549 28.48558,44.314303 17.31054,21.767505 41.46176,42.954375 59.80186,52.461725 25.39208,13.16303 62.10505,21.00639 86.07089,18.3882 12.29059,-1.34271 16.24606,-0.92808 17.29799,1.81323 2.44058,6.36004 -24.71811,31.64396 -47.62878,44.34095 -15.78729,8.74925 -29.08044,12.8972 -60.67695,18.93343 -13.34124,2.54872 -19.59894,4.45262 -19.4878,5.92913 0.15256,2.02694 18.57949,10.26167 28.71725,12.83332 15.1884,3.85285 35.24783,5.28099 53.94598,3.84069 36.2101,-2.78922 63.73951,-10.41068 90.54164,-25.06628 14.70078,-8.03847 17.00845,-8.91278 18.26994,-6.92188 2.57397,4.06228 -0.18867,33.50213 -4.22026,44.97271 -5.81209,16.53645 -27.77235,38.33139 -48.16324,47.80065 -13.4947,6.26676 -18.50134,8.97816 -18.92496,10.249 -0.49409,1.48228 6.96314,4.18491 15.6794,5.68245 3.78826,0.65087 15.78826,1.57412 26.66666,2.05167 18.49307,0.81184 25.64557,1.94261 25.64557,4.05446 0,4.07346 -16.8486,19.26766 -34.66667,31.26268 -25.62711,17.25202 -51.042,24.37595 -87.12281,24.42098 -18.14105,0.0226 -27.41379,-1.08746 -45.11709,-5.40129 -13.53271,-3.29757 -17.62676,-3.77429 -17.62676,-2.05252 0,4.74256 45.69367,26.57399 67.02677,32.02391 13.02788,3.32821 23.56963,4.48959 45.54337,5.01751 32.06961,0.77046 53.31894,-1.43065 80.14483,-8.30182 15.90088,-4.07284 27.28841,-8.85706 41.38447,-17.38677 6.4347,-3.89371 12.50965,-7.07948 13.4999,-7.07948 2.68788,0 3.42626,8.09584 2.06881,22.68283 -2.36019,25.36223 -5.55263,36.58002 -14.0078,49.22156 -8.42816,12.60115 -18.1477,20.9521 -32.24139,27.70155 -6.61752,3.16912 -12.6802,6.54324 -13.47262,7.49806 -2.12109,2.55576 0.48956,4.93887 11.82252,10.79212 11.83567,6.11287 19.56625,8.81021 29.16447,10.17599 4.10666,0.58436 9.50666,2.05 12,3.257 7.05235,3.41395 6.37917,5.78727 -4.8,16.92247 -15.04465,14.9855 -27.01535,19.21509 -54.38302,19.21509 -27.80734,0 -42.08248,-3.04553 -69.88597,-14.90983 -26.8364,-11.45161 -29.76438,-11.27034 -20.18279,1.24953 6.71452,8.77358 21.66741,21.62602 33.4735,28.77145 22.0792,13.36305 23.84772,15.25627 17.72799,18.97791 -7.04509,4.28437 -18.00171,5.91093 -39.81638,5.91093 -17.34295,0 -21.8824,-0.35994 -31.46666,-2.49508 -24.02941,-5.35316 -47.01587,-14.68211 -63.4504,-25.75107 -9.99743,-6.73344 -14.41627,-8.97614 -14.41627,-7.3167 0,2.48495 24.05829,24.97101 33.06667,30.90576 32.3426,21.30736 73.98249,34.09384 119.46666,36.68497 35.64559,2.03065 78.56851,-6.91497 100.42569,-20.92984 6.92391,-4.43962 10.185,-5.98068 10.97795,-5.18773 1.68592,1.68592 1.10134,28.44261 -0.90792,41.55636 -4.28569,27.97127 -20.20187,45.13707 -52.36238,56.4735 -12.23017,4.31107 -21.86667,8.6264 -21.86667,9.79212 0,3.24161 25.57863,14.30997 41.6,18.00112 20.20807,4.65571 23.26353,6.75832 19.25235,13.24855 -4.94616,8.00304 -29.72578,21.79052 -47.90871,26.6566 -27.28448,7.3018 -54.14153,5.79665 -91.70768,-5.13958 -13.3477,-3.88578 -19.36929,-4.7327 -19.36929,-2.72424 0,0.60944 10.56,11.84929 23.46666,24.97744 25.29007,25.72408 26.18606,27.08723 20.66075,31.43345 -4.94676,3.89113 -10.64479,4.82082 -29.19408,4.76336 -26.43148,-0.0819 -44.63536,-4.03564 -64.51706,-14.01263 -16.25049,-8.15478 -27.05366,-16.08338 -49.61627,-36.41406 -12.63647,-11.38645 -22.97978,-19.3223 -25.18401,-19.3223 -1.86397,0 -1.85727,1.45211 0.11077,24 3.51061,40.22099 10.22274,91.7432 14.06989,108 l 0.56796,2.4 h -61.02976 c -55.00633,0 -60.96637,-0.1652 -60.38747,-1.67379 z"
       id="path1909" />
    <path
       style="display:inline;fill:#803300;stroke-width:1.06667"
       d="m 391.99999,852.56518 3.2,-1.01643 -0.18016,-12.17438 c -0.0991,-6.69592 -1.42166,-23.21439 -2.93906,-36.70772 -1.5174,-13.49334 -3.91815,-37.73334 -5.33503,-53.86667 -2.16314,-24.63068 -3.00954,-30.50839 -5.27956,-36.66292 -1.48689,-4.03128 -3.3721,-8.11128 -4.18935,-9.06667 -0.81724,-0.95539 -1.77307,-2.54911 -2.12405,-3.54159 -0.35098,-0.99249 -1.98394,-2.66866 -3.6288,-3.72483 -1.64486,-1.05618 -3.92116,-2.76415 -5.05845,-3.79549 -4.68666,-4.25006 -11.76055,-1.02116 -18.17871,8.29772 -2.26706,3.29167 -6.61326,8.22937 -9.65823,10.97265 -3.04497,2.74329 -6.03078,5.9478 -6.63516,7.12113 -0.60436,1.17333 -1.42634,7.41333 -1.82662,13.86667 -1.45187,23.40726 -4.86921,61.16876 -6.99849,77.33333 -1.19782,9.09333 -2.47238,22.3862 -2.83235,29.5397 l -0.65449,13.00638 2.55925,0.55209 c 1.40759,0.30365 3.51926,0.78165 4.6926,1.0622 3.8237,0.91429 61.77689,-0.15021 65.06666,-1.19517 z"
       id="path1936" />
  </g>
</svg>
